HIERARCHY
ROOT Hips
{
	OFFSET	0.00	0.00	0.00
	CHANNELS 6 Xposition Yposition Zposition Zrotation Xrotation Yrotation
	JOINT LeftUpLeg
	{
		OFFSET	 0.126116	-0.014019	-0.065224
		CHANNELS 3 Zrotation Xrotation Yrotation
		JOINT LeftLeg
		{
			OFFSET	 0.000000	 0.000000	 0.569914
			CHANNELS 3 Zrotation Xrotation Yrotation
			JOINT LeftFoot
			{
				OFFSET	 0.000000	 0.000000	 0.544423
				CHANNELS 3 Zrotation Xrotation Yrotation
				JOINT LeftToeBase
				{
					OFFSET	 0.000000	 0.000000	 0.207117
					CHANNELS 3 Zrotation Xrotation Yrotation
					End Site
					{
						OFFSET	 0.000000	 0.000000	 0.207117
					}
				}
			}
		}
	}
	JOINT RightUpLeg
	{
		OFFSET	-0.124023	-0.008373	-0.065224
		CHANNELS 3 Zrotation Xrotation Yrotation
		JOINT RightLeg
		{
			OFFSET	 0.000000	 0.000000	 0.570047
			CHANNELS 3 Zrotation Xrotation Yrotation
			JOINT RightFoot
			{
				OFFSET	 0.000000	 0.000000	 0.544354
				CHANNELS 3 Zrotation Xrotation Yrotation
				JOINT RightToeBase
				{
					OFFSET	 0.000000	 0.000000	 0.207540
					CHANNELS 3 Zrotation Xrotation Yrotation
					End Site
					{
						OFFSET	 0.000000	 0.000000	 0.207540
					}
				}
			}
		}
	}
	JOINT Spine
	{
		OFFSET	 0.000184	-0.007763	 0.117403
		CHANNELS 3 Zrotation Xrotation Yrotation
		JOINT Spine1
		{
			OFFSET	 0.000000	 0.000000	 0.137269
			CHANNELS 3 Zrotation Xrotation Yrotation
			JOINT Spine2
			{
				OFFSET	 0.000000	 0.000000	 0.156879
				CHANNELS 3 Zrotation Xrotation Yrotation
				JOINT LeftShoulder
				{
					OFFSET	 0.080501	-0.002496	 0.160144
					CHANNELS 3 Zrotation Xrotation Yrotation
					JOINT LeftArm
					{
						OFFSET	 0.000000	 0.000000	 0.164363
						CHANNELS 3 Zrotation Xrotation Yrotation
						JOINT LeftForeArm
						{
							OFFSET	 0.000000	 0.000000	 0.364576
							CHANNELS 3 Zrotation Xrotation Yrotation
							JOINT LeftHand
							{
								OFFSET	 0.000000	 0.000000	 0.360812
								CHANNELS 3 Zrotation Xrotation Yrotation
								JOINT LeftHandIndex1
								{
									OFFSET	 0.000000	 0.000000	 0.086006
									CHANNELS 3 Zrotation Xrotation Yrotation
									JOINT LeftHandIndex2
									{
										OFFSET	 0.000000	 0.000000	 0.047236
										CHANNELS 3 Zrotation Xrotation Yrotation
										JOINT LeftHandIndex3
										{
											OFFSET	-0.004284	-0.000551	 0.038166
											CHANNELS 3 Zrotation Xrotation Yrotation
											End Site
											{
												OFFSET	-0.004284	-0.000551	 0.038166
											}
										}
									}
								}
							}
						}
					}
				}
				JOINT Neck
				{
					OFFSET	 0.000000	 0.000000	 0.176489
					CHANNELS 3 Zrotation Xrotation Yrotation
					JOINT Head
					{
						OFFSET	 0.000000	-0.001747	 0.077940
						CHANNELS 3 Zrotation Xrotation Yrotation
						End Site
						{
							OFFSET	 0.000000	-0.001747	 0.077940
						}
					}
				}
				JOINT RightShoulder
				{
					OFFSET	-0.080363	 0.000306	 0.159706
					CHANNELS 3 Zrotation Xrotation Yrotation
					JOINT RightArm
					{
						OFFSET	 0.000000	 0.000000	 0.164196
						CHANNELS 3 Zrotation Xrotation Yrotation
						JOINT RightForeArm
						{
							OFFSET	 0.000000	 0.000000	 0.365611
							CHANNELS 3 Zrotation Xrotation Yrotation
							JOINT RightHand
							{
								OFFSET	 0.000000	 0.000000	 0.360648
								CHANNELS 3 Zrotation Xrotation Yrotation
								JOINT RightHandIndex1
								{
									OFFSET	 0.000000	 0.000000	 0.069977
									CHANNELS 3 Zrotation Xrotation Yrotation
									JOINT RightHandIndex2
									{
										OFFSET	 0.000000	 0.000000	 0.052305
										CHANNELS 3 Zrotation Xrotation Yrotation
										JOINT RightHandIndex3
										{
											OFFSET	 0.009002	-0.000782	 0.042196
											CHANNELS 3 Zrotation Xrotation Yrotation
											End Site
											{
												OFFSET	 0.009002	-0.000782	 0.042196
											}
										}
									}
								}
							}
						}
					}
				}
			}
		}
	}
}
MOTION
Frames:    5
Frame Time: 0.03333334
 7.530003	 0.623466	-0.814326	-166.108900	 0.637663	 3.625937	 5.058749	-3.884429	 176.459200	-11.440140	-34.695510	-5.430033	 171.972900	 86.710440	 179.308400	-2.377767	 30.123500	-0.036539	 1.809340	-12.613820	 178.845900	 3.897177	-49.259710	 6.108164	-175.095500	 82.235120	-178.950900	 2.403647	 22.156500	-0.129949	 3.007857	 0.110826	-1.605195	 6.084550	-2.710110	 0.271835	 7.780749	-4.897620	 0.846147	-91.809330	 77.645860	 179.109800	 42.660230	 72.678760	-45.490720	-9.287635	-4.110599	-20.526730	 5.060521	-11.546090	-5.439487	-3.812334	 37.924440	-2.927599	-2.450526	 36.184240	 0.754587	-1.378229	 35.397820	-2.634230	 0.592985	 6.542878	-3.259783	 2.325683	-14.294420	-0.958759	 89.766570	 79.229540	-179.660000	-42.175580	 73.117510	 44.422310	 4.454428	-8.925109	 32.285550	-11.100610	-12.426370	 9.814248	 6.437017	 35.671460	-0.771858	 2.830251	 35.756010	-7.813440	-2.350882	 35.473990	 5.254307
 7.528082	 0.626513	-0.814968	-169.815500	 0.631752	 3.677294	 5.062194	-3.918223	 176.465000	-11.300950	-33.668540	-5.173770	 171.976600	 86.672160	 179.326300	-2.377533	 30.168330	-0.037524	 1.791565	-12.629580	 178.882000	 3.648853	-47.578960	 5.717244	-175.161000	 82.208920	-178.884800	 2.403646	 22.158630	-0.129905	 3.021309	 0.155707	-1.619759	 6.100348	-2.691496	 0.278503	 7.789465	-4.799074	 0.840444	-91.809460	 77.635970	 179.115200	 36.910000	 69.875290	-40.018090	-7.942068	-3.982045	-19.676250	 5.049082	-11.546080	-5.440050	-3.812334	 37.924440	-2.927599	-2.450526	 36.184240	 0.754587	-1.378229	 35.397820	-2.634230	 0.572820	 6.076187	-3.229732	 2.306912	-13.592460	-1.036530	 89.766220	 79.239230	-179.655900	-36.481340	 70.270960	 39.110650	 4.187085	-7.845835	 30.896680	-9.693301	-12.428520	 9.814136	 6.437017	 35.671460	-0.771858	 2.830251	 35.756010	-7.813440	-2.350882	 35.473990	 5.254307
 7.527545	 0.634053	-0.815324	-169.614400	 0.672405	 3.694895	 5.047703	-4.021611	 176.485800	-11.214310	-33.794390	-5.149857	 171.959100	 86.530170	 179.410500	-2.377249	 30.224370	-0.038765	 1.758491	-12.683300	 178.979700	 3.664996	-47.665710	 5.728353	-175.464200	 82.050210	-178.594700	 2.403688	 22.134900	-0.130382	 3.004757	 0.169525	-1.692511	 6.071698	-2.685351	 0.268380	 7.728726	-4.793524	 0.833499	-91.809830	 77.609260	 179.131900	 36.721730	 69.872220	-39.729620	-7.991839	-4.009367	-19.969430	 5.002878	-11.552850	-5.441912	-3.812334	 37.924440	-2.927599	-2.450526	 36.184240	 0.754587	-1.378229	 35.397820	-2.634230	 0.508370	 6.053319	-3.201008	 2.239830	-13.536600	-1.059777	 89.765340	 79.265690	-179.645500	-36.384400	 70.358670	 39.099200	 4.242585	-7.809445	 30.622410	-9.731056	-12.441250	 9.814114	 6.437017	 35.671460	-0.771858	 2.830251	 35.756010	-7.813440	-2.350882	 35.473990	 5.254307
 7.527218	 0.629482	-0.815748	-169.434300	 0.730675	 3.714858	 5.028700	-4.165337	 176.508900	-11.110380	-33.982770	-5.127936	 171.977600	 86.348050	 179.473800	-2.376510	 30.360880	-0.041798	 1.786301	-12.758930	 178.976700	 3.731796	-47.840840	 5.817424	-175.730100	 81.812640	-178.287500	 2.403631	 22.169080	-0.129692	 2.995355	 0.168067	-1.741638	 6.050610	-2.691287	 0.250043	 7.680808	-4.800416	 0.828776	-91.809610	 77.594600	 179.149700	 36.612440	 69.835630	-39.591680	-8.049652	-4.030973	-20.278840	 4.934409	-11.571760	-5.444022	-3.812334	 37.924440	-2.927599	-2.450526	 36.184240	 0.754587	-1.378229	 35.397820	-2.634230	 0.467714	 5.932894	-3.294571	 2.202442	-13.393890	-0.965962	 89.764490	 79.279510	-179.633200	-36.286460	 70.431760	 39.037320	 4.267838	-7.763484	 30.320420	-9.760758	-12.466010	 9.814369	 6.437017	 35.671460	-0.771858	 2.830251	 35.756010	-7.813440	-2.350882	 35.473990	 5.254307
 7.527334	 0.623874	-0.816037	-169.349300	 0.769370	 3.735850	 5.014205	-4.266541	 176.526200	-11.035400	-34.122820	-5.112843	 171.967200	 86.223740	 179.542700	-2.375978	 30.460250	-0.044010	 1.849138	-12.839660	 178.972200	 3.807104	-48.034370	 5.939810	-176.019600	 81.643700	-177.938500	 2.403582	 22.192990	-0.129208	 2.995594	 0.162557	-1.762101	 6.048376	-2.709600	 0.228426	 7.668040	-4.820463	 0.828725	-91.809030	 77.602910	 179.157900	 36.589580	 69.794000	-39.594910	-8.085401	-4.039454	-20.457060	 4.884045	-11.589750	-5.445622	-3.812334	 37.924440	-2.927599	-2.450526	 36.184240	 0.754587	-1.378229	 35.397820	-2.634230	 0.468243	 5.809471	-3.431294	 2.206762	-13.282120	-0.829375	 89.764180	 79.270480	-179.624500	-36.258580	 70.466150	 39.036100	 4.262133	-7.739730	 30.133050	-9.787569	-12.488790	 9.814497	 6.437017	 35.671460	-0.771858	 2.830251	 35.756010	-7.813440	-2.350882	 35.473990	 5.254307
